<svg id="Share" xmlns="http://www.w3.org/2000/svg" width="28.264" height="30.833" viewBox="0 0 28.264 30.833">
  <path id="Trazado_1083" data-name="Trazado 1083" d="M323.018,20.175A4.175,4.175,0,1,1,318.843,16,4.175,4.175,0,0,1,323.018,20.175Zm0,0" transform="translate(-295.719 -15.036)" fill="#2c2c2c"/>
  <path id="Trazado_1084" data-name="Trazado 1084" d="M303.807,10.278a5.139,5.139,0,1,1,5.139-5.139A5.144,5.144,0,0,1,303.807,10.278Zm0-8.351a3.212,3.212,0,1,0,3.212,3.212A3.215,3.215,0,0,0,303.807,1.927Zm0,0" transform="translate(-280.682)" fill="#2c2c2c"/>
  <path id="Trazado_1085" data-name="Trazado 1085" d="M323.018,361.508a4.175,4.175,0,1,1-4.175-4.175A4.175,4.175,0,0,1,323.018,361.508Zm0,0" transform="translate(-295.719 -335.813)" fill="#2c2c2c"/>
  <path id="Trazado_1086" data-name="Trazado 1086" d="M303.807,351.61a5.139,5.139,0,1,1,5.139-5.139A5.144,5.144,0,0,1,303.807,351.61Zm0-8.351a3.212,3.212,0,1,0,3.212,3.212A3.215,3.215,0,0,0,303.807,343.259Zm0,0" transform="translate(-280.682 -320.776)" fill="#2c2c2c"/>
  <path id="Trazado_1087" data-name="Trazado 1087" d="M24.351,190.843a4.175,4.175,0,1,1-4.175-4.175A4.175,4.175,0,0,1,24.351,190.843Zm0,0" transform="translate(-15.036 -175.427)" fill="#2c2c2c"/>
  <path id="Trazado_1088" data-name="Trazado 1088" d="M5.139,180.946a5.139,5.139,0,1,1,5.139-5.139A5.144,5.144,0,0,1,5.139,180.946Zm0-8.35a3.212,3.212,0,1,0,3.212,3.212A3.215,3.215,0,0,0,5.139,172.6Zm0,0" transform="translate(0 -160.391)" fill="#2c2c2c"/>
  <path id="Trazado_1089" data-name="Trazado 1089" d="M115.635,99.582a1.285,1.285,0,0,1-.637-2.4l11.921-6.8a1.285,1.285,0,1,1,1.272,2.233l-11.921,6.8A1.276,1.276,0,0,1,115.635,99.582Zm0,0" transform="translate(-107.462 -84.782)" fill="#2c2c2c"/>
  <path id="Trazado_1090" data-name="Trazado 1090" d="M127.575,275.586a1.277,1.277,0,0,1-.635-.168l-11.921-6.8a1.285,1.285,0,0,1,1.272-2.233l11.921,6.8a1.285,1.285,0,0,1-.637,2.4Zm0,0" transform="translate(-107.483 -250.187)" fill="#2c2c2c"/>
</svg>
