<svg id="twitter" xmlns="http://www.w3.org/2000/svg" width="20.34" height="16.526" viewBox="0 0 20.34 16.526">
  <g id="Grupo_965" data-name="Grupo 965">
    <path id="Trazado_1094" data-name="Trazado 1094" d="M20.34,49.956a8.694,8.694,0,0,1-2.4.659,4.147,4.147,0,0,0,1.834-2.3,8.333,8.333,0,0,1-2.644,1.009,4.17,4.17,0,0,0-7.213,2.851,4.294,4.294,0,0,0,.1.951A11.8,11.8,0,0,1,1.416,48.76,4.171,4.171,0,0,0,2.7,54.333,4.118,4.118,0,0,1,.814,53.82v.046a4.189,4.189,0,0,0,3.341,4.1,4.162,4.162,0,0,1-1.093.137,3.687,3.687,0,0,1-.789-.071,4.21,4.21,0,0,0,3.9,2.9A8.379,8.379,0,0,1,1,62.712a7.81,7.81,0,0,1-1-.057,11.739,11.739,0,0,0,6.4,1.871A11.787,11.787,0,0,0,18.265,52.66c0-.184-.006-.362-.015-.539A8.319,8.319,0,0,0,20.34,49.956Z" transform="translate(0 -48)" fill="#2c2c2c"/>
  </g>
</svg>
