<svg id="whatsapp" xmlns="http://www.w3.org/2000/svg" width="22.82" height="22.842" viewBox="0 0 22.82 22.842">
  <path id="Trazado_1097" data-name="Trazado 1097" d="M19.448,3.317a11.416,11.416,0,0,0-16.089,0,11.206,11.206,0,0,0-3.359,8v.006a11.264,11.264,0,0,0,1.39,5.346L.031,22.842l6.246-1.421a11.433,11.433,0,0,0,5.128,1.218h0a11.379,11.379,0,0,0,8.05-3.315,11.2,11.2,0,0,0-.012-16.008ZM11.41,20.857h0A9.636,9.636,0,0,1,6.825,19.7l-.3-.16-4.154.945.9-4.1-.174-.3a9.529,9.529,0,0,1-1.322-4.761A9.624,9.624,0,0,1,18.19,4.58a9.477,9.477,0,0,1,2.847,6.743A9.594,9.594,0,0,1,11.41,20.857Zm0,0" fill="#2c2c2c"/>
  <path id="Trazado_1098" data-name="Trazado 1098" d="M140.977,141.863h-.5a.96.96,0,0,0-.7.325,2.912,2.912,0,0,0-.914,2.169,5.052,5.052,0,0,0,1.066,2.69,10.7,10.7,0,0,0,4.458,3.927c2.2.866,2.653.694,3.132.651a2.636,2.636,0,0,0,1.762-1.236,2.168,2.168,0,0,0,.152-1.237c-.065-.108-.239-.173-.5-.3s-1.54-.77-1.779-.857-.413-.13-.587.131-.687.862-.839,1.035-.3.2-.566.065a7.216,7.216,0,0,1-2.09-1.3,8,8,0,0,1-1.467-1.829c-.152-.26-.016-.4.115-.531s.276-.276.406-.427a1.758,1.758,0,0,0,.255-.434.478.478,0,0,0-.022-.456c-.065-.13-.566-1.416-.8-1.931h0C141.369,141.886,141.163,141.871,140.977,141.863Zm0,0" transform="translate(-132.672 -135.534)" fill="#2c2c2c"/>
</svg>
