<svg xmlns="http://www.w3.org/2000/svg" width="128.202" height="122.098" viewBox="0 0 128.202 122.098">
  <g id="Grupo_24" data-name="Grupo 24" transform="translate(-236.213 -80.376)" opacity="0.357">
    <path id="Trazado_97" data-name="Trazado 97" d="M250.852,81.78c.426.158,1.227-.147,1.809-.019.059.566.6,1.074,1.006,1.641L256,81.6c-.535-.428-.914-.838-.876-1.223a18.893,18.893,0,0,0-3.292.245l-.139.108-.625.484a4.656,4.656,0,0,0-.493.152A.681.681,0,0,0,250.852,81.78Z" transform="translate(7.896)" fill="#fef7a7"/>
    <path id="Trazado_98" data-name="Trazado 98" d="M247.356,89.608c2.115-1.833,3.736-3.146,5.444-4.406-.136-.223-.257-.448-.375-.674-.107-.243-1.415.1-1.8-.059-.143-.321,1.482-.635,1.492-.933s-.983-.394-1.686-.572a9.425,9.425,0,0,1-3.764,3.044c-.284.219-.583.417-.851.59l-1.11.859-.6,4.66,2.7-2.091Z" transform="translate(4.342 1.423)" fill="#fef7a7"/>
    <path id="Trazado_99" data-name="Trazado 99" d="M251.689,83.422c-2.757.288.57.491-1.468.75.191.059.356.119.5.178.479-.339.969-.682,1.489-1.037.1-.067.2-.147.3-.22a14.444,14.444,0,0,1-2.14.065c.174.124-.338.18-.5.271C249.7,83.693,250.506,83.394,251.689,83.422Z" transform="translate(7.498 1.494)" fill="#fef7a7"/>
    <path id="Trazado_100" data-name="Trazado 100" d="M260.334,88.155l-.246.191c.2-.008.423-.012.634-.019C260.85,88.228,260.517,88.2,260.334,88.155Z" transform="translate(13.125 4.277)" fill="#fef7a7"/>
    <path id="Trazado_101" data-name="Trazado 101" d="M250.461,104.734a10.2,10.2,0,0,1-1.145,1.19c.642.908,1.26,1.623,1.663,2.2l.051-.054c.281-.228.592-.454.91-.68,1.139-.907,2.3-1.795,3.461-2.672-.747-.934-1.486-2.39-1.161-2.535l1.179,1.416c-.485-.059-.217.428.153.989,3.749-2.817,7.538-5.5,10.9-8.161l.586-.453,1.742-1.347.566-.443a8.17,8.17,0,0,1,1.046-2.7,8.056,8.056,0,0,1-.6-.846c.209-.048.549.169.928.465.851-.846,2.117-.964,4.457-1.341l.651-.511c.043-.411.215-.832-.305-1.306a4.46,4.46,0,0,1,1.055.29c-.028-.036-.057-.07-.084-.105.029-.291.293-.113.584.119.223-.181.437-.358.629-.519l.62-.479c4.8-3.713,8.042-6.218,8.042-6.218l-4.66-.6-4.959,3.834c.488.989.468,1.951-1.124,2.943a2.533,2.533,0,0,1-.6-1.692,4.162,4.162,0,0,0-.733.663c-.169.191-.423.463-.7.755-2.213,2.518-5,3.1-7.2,5.325.95.071,1.124.432-.58.466l-.081.062c-.511.4-1.035.8-1.554,1.2.09.394.533.8,2.039,1.117l-1.822.031c.105.411.536,1.066-1.141,1.373-1.108-.4,1.031-1.26-.161-1.681l-.273.211c-.194.161-.389.319-.583.477-3.648,2.966-7.321,5.849-10.953,8.584Q250.88,104.421,250.461,104.734Z" transform="translate(7.203 0.033)" fill="#fef7a7"/>
    <path id="Trazado_102" data-name="Trazado 102" d="M247.942,104.687l.831-.583c.687-1.3,3.516-1.853,4.758-3.628.245-.24.49-.491.735-.778.16-.16.315-.329.471-.494-.561-.727-1.2-1.429-.545-.439-.89-.38-.532-.838-1.178-1.745-4.228,3.6-11.6,5.559-10.811,12.213A46.281,46.281,0,0,1,247.942,104.687Z" transform="translate(3.26 9.15)" fill="#fef7a7"/>
    <path id="Trazado_103" data-name="Trazado 103" d="M290.14,82.932l-1.271-.163c.361,1.308-1.567.336-1,1.922Z" transform="translate(28.338 1.316)" fill="#fef7a7"/>
    <path id="Trazado_104" data-name="Trazado 104" d="M245.369,137.965l.747-.577,6.675-5.162.852-.659c1.751-.851,3.118-4.353,5.485-4.246.158-.124.327-.246.49-.372l3.474-2.687.55-.426c7.287-6.761,16.006-10.242,22.668-17.484.191-.149.389-.342.581-.491l2.3-1.782.456-.353c2.559-2.754,5.66-4.623,8.846-6.844.29-.2.581-.408.871-.615,3.072-2.741,5.227-5.224,8.4-6.583.332-.243.657-.477.919-.68q1.381-1.065,2.546-1.967c-.445-1.884,1.065-1.277,1.3-2.732l.911,1.017.5-.387-1.35-1.508c.727.017.874-.319.944-.7l-1.864-.239L307.6,85.647l-.508.392a7.037,7.037,0,0,0-1.641,1.027c.332.206-.144.555,1.322.559,1.437-.026.251-.394,2.322-.341.161.164-.855.175-.508.363-.741.04-.776-.045-1.361-.033-.352.36.346.53.335.829a11.235,11.235,0,0,0-1.353-.036c2.459.322-1.416.891-.253,1.677-1.854-.5-1.454-1.537-1.274-2.337-1.624,1.554-3.11,3.557-5.8,4.652-.263.208-.516.423-.764.645-2.977,2.65-5.347,6-9.655,7.4-.214.166-.429.332-.643.5l-7.288,5.635c-.2.152-.4.315-.594.468-5.833,6.755-14.436,9.332-20.3,15.683-.178.138-.355.276-.533.412l-.487.377c-3.216.725-4.6,4.028-7.247,5.646,1.058,2.007-1.19,1.545-.953,2.941a2.359,2.359,0,0,1-.383-1.95c-1.984,1.533-3.733,2.886-5.165,3.994l-.665.513c-3.307,1.553-3.654,4.266-4.118,7.885C241.343,139.952,244.171,139.394,245.369,137.965Zm16.571-15.979c.285.8.372,1.96-.589,1.275C261.108,122.491,261.17,121.443,261.941,121.985Zm-.2,1.751c.993,1.593-.857.05-.857.7C258.823,121.965,260.842,122.929,261.741,123.737Zm-13.072,8.2c.065,1.606-.163,2.568-1.576,2.834C246.894,133.407,247.7,132.645,248.669,131.938Z" transform="translate(2.132 1.162)" fill="#fef7a7"/>
    <path id="Trazado_105" data-name="Trazado 105" d="M304.956,86.008c-.463-.516-.936-1.037-.4-.908-.1-.112-.2-.209-.3-.313l-.457-.057c.68.753.236.784.865,1.5Z" transform="translate(37.154 2.393)" fill="#fef7a7"/>
    <path id="Trazado_106" data-name="Trazado 106" d="M251.389,155.519c1.155-1.626,2.963-1.395,3.967-3.068l.522-.4,1.432-1.107c.242-.188.609-.484.786-.609,1.819-3.767,5.438-3.306,7.225-5.585l.488-.377c5.161-3.991,10.73-8.3,16.43-12.7a7.606,7.606,0,0,1,.662-.638c1.384-2.49,2.4-3.279,5.263-3.966.232-.169.466-.338.688-.508s.442-.342.663-.513l.663-.515c2.548-1.919,5.1-3.87,7.55-5.779.245-.191.5-.4.747-.6a21.494,21.494,0,0,1,6.865-5.345l.487-.377,5.683-4.393.854-.66c2.605-1.95,5.683-4.314,8.35-6.537.242-.2.482-.4.716-.6,2.528-2.559,6.377-3.9,8.189-6.207.161-.122.322-.246.573-.44l10.4-8.038c-.679-.654-1.382-1.358-2-1.9l-.842-.108-1.892,1.463a7.174,7.174,0,0,1,.693.547c1.148,1.663-2.084-1.348-.057.886-.68-.465-.831.307-1.464-.792l-.1.081a5.982,5.982,0,0,1,.149,2.012,3.7,3.7,0,0,1-.834-1.482l-7.332,5.667c-.153.146-.308.285-.462.411-1.237,2.74-3.161,3.413-5.59,4.119q-.388.27-.784.553c-.3.273-.586.555-.871.841.042.167.016.29-.236.262l-.012-.012c-1.04,1.058-2.036,2.167-3.079,3.129.513.6.792,1.31.577,1.536a14.448,14.448,0,0,1-.995-1.161c-.127.112-.254.22-.383.325l1.015,1.153-.361.316a7.015,7.015,0,0,1-.917-1.265,8.065,8.065,0,0,1-3.151,1.59c-.263.2-.536.409-.8.614l-6.58,5.089q-.423.325-.846.654c-2.473,2.118-4.629,4.6-7.434,6.365-.147.126-.291.248-.482.412-3.456,2.872-7.279,5.247-10.924,7.811-.067.51-.321.634-.93.657l-.392.284a.313.313,0,0,1-.063.048c-.391.285-.775.58-1.161.874.2.344.377.676.147.714-.163-.191-.294-.356-.412-.515-.525.406-1.038.826-1.548,1.251a5.339,5.339,0,0,1,.88.967l-.494.406a5.277,5.277,0,0,1-.786-1.043c-.1.088-.211.17-.313.259l-.18.139c.189.271.363.505.516.476.073.648-.533,1.212-1.218,1.791-.854-1.652.626-.917.321-1.973l-.06.046-10.842,8.384c-.218.167-.435.336-.652.5-2.574.744-3.073,2.222-4.421,3.409a3.847,3.847,0,0,1-.638.488,10.494,10.494,0,0,1-5.336,4.268c-.246.161-.549.322-.784.479l-.651.5L238.545,161.25l-.6,4.66,12.971-10.03Zm79.022-64.314c.817.1,1.02.3,1.762.409C332.085,91.681,329.178,91.379,330.412,91.205Z" transform="translate(0.955 2.291)" fill="#fef7a7"/>
    <path id="Trazado_107" data-name="Trazado 107" d="M305.4,84.934l-.132-.017c.026.017.053.036.081.056Z" transform="translate(37.963 2.497)" fill="#fef7a7"/>
    <path id="Trazado_108" data-name="Trazado 108" d="M305.588,85.25l-.293-.3a.492.492,0,0,1,.093-.042l-.528-.067c.017.274-.18.417-.572.2l.654.711Z" transform="translate(37.423 2.454)" fill="#fef7a7"/>
    <path id="Trazado_109" data-name="Trazado 109" d="M315.692,89.039c.367.451.738.933,1.107,1.421a1.064,1.064,0,0,0,.445-.485C316.71,89.306,316.2,88.745,315.692,89.039Z" transform="translate(43.692 4.719)" fill="#fef7a7"/>
    <path id="Trazado_110" data-name="Trazado 110" d="M316.062,91.659a5.8,5.8,0,0,1-1.01-.742l0,.029a4.54,4.54,0,0,1,.722.933Z" transform="translate(43.34 5.795)" fill="#fef7a7"/>
    <path id="Trazado_111" data-name="Trazado 111" d="M314.774,89.47l-.232.18C314.761,89.679,314.813,89.6,314.774,89.47Z" transform="translate(43.06 4.999)" fill="#fef7a7"/>
    <path id="Trazado_112" data-name="Trazado 112" d="M306.82,97.17c-.008.257.583.905.64,1.2l.335-.259A4.794,4.794,0,0,1,306.82,97.17Z" transform="translate(38.815 9.232)" fill="#fef7a7"/>
    <path id="Trazado_113" data-name="Trazado 113" d="M313,95.456a2.2,2.2,0,0,1,.183.25l3.1-2.4a24.137,24.137,0,0,1-2.416-2.332l-.285.222a7.012,7.012,0,0,1,1.7,2.168l.24-.22a6.515,6.515,0,0,1-2.4,2.2,7.635,7.635,0,0,1-2.046-2.208l-.378.293C311.906,94.947,312.159,94.642,313,95.456Z" transform="translate(40.946 5.828)" fill="#fef7a7"/>
    <path id="Trazado_114" data-name="Trazado 114" d="M316.75,90.767l.166.223.555-.429c-.256-.276-.507-.6-.752-.913A3.821,3.821,0,0,1,316.75,90.767Z" transform="translate(44.257 5.097)" fill="#fef7a7"/>
    <path id="Trazado_115" data-name="Trazado 115" d="M261.063,164.962a16.405,16.405,0,0,1,3.237-2.624q.43-.335.862-.666c4.61-3.543,9.477-6.856,14.2-10.149l.781-.539c1.516-1.049,3.007-2.1,4.423-3.239.253-.2.5-.406.749-.614,2.458-1.071,4.614-3.552,6.833-5.746l.886-.687,9.8-7.578c-.762-1.334,1.066-.842,1.1-1.619a5.55,5.55,0,0,1,.322.524l3.6-2.783c-1.151-.883-.75-.1-1.711-.4-.573-.975.339-.907.074-1.668a7.1,7.1,0,0,1,1.717,2l9.821-7.6.643-.5c3.158-1.962,5.314-4.445,8.787-6.8.2-.158.418-.313.621-.471l1.922-1.485.476-.367a8.974,8.974,0,0,0,3.546-2.078c.231-.2.465-.409.7-.625,1.506-2.081,3.431-2.755,4.688-4.26a5.037,5.037,0,0,1,.549-.369l6.39-4.942a.678.678,0,0,1-.1-.014c-1.723-2.053.087-1.813-.329-3.019.84.333,1.4,1.812,1.77,1.706,0,.081,0,.184,0,.293l1.362-1.054a8.553,8.553,0,0,0-2.151-2.537c-2.4,1.855-4.992,3.862-7.744,5.99-.319.248-.487.375-.651.5-3.505.866-3.969,4.485-7.254,6.179-.268.107-.533.208-.792.31s-.505.2-.741.31c-.16.124-.327.248-.488.372l-1.95,1.508-.316.245c.986,1.089-.149.753.629,1.7a5.016,5.016,0,0,1-1.4-1.136l-.208.149c-.417,1.469-.48,3.064-1.97,3.306-1.525-2.729.933-.945.773-2.317-.023-.026-.047-.048-.07-.073-1.407,1.031-2.785,2.081-4.087,3.121-.237.189-.473.378-.7.567-1.6,1.959-4.432,2.515-4.911,3.907-.251.194-.5.4-.755.59l-9.181,7.1-.882.682c-1.178,1.513-4.006,2.07-5.3,4.062-.149.129-.3.251-.446.378q-4.2,3.245-8.358,6.462c-.291.226-.584.477-.874.7-.716,2.763-3.315,1.511-4.1,3.179-.267.245-.55.482-.855.713-2.385,2.007-4.824,3.695-7.242,5.382-.268.188-.536.392-.8.58-3.939,3.023-7.7,6.2-11.463,9.219-.268.215-.538.429-.823.642-1.973,1.226-4.252,3.372-6.373,4.968-.236.177-.47.35-.7.525-2.7,1.661-5.874,4.933-8.776,6.583-.209.163-.425.321-.629.479l-10.873,8.406-.1.823,3.837.49,7.769-6.007.6-.46c4.672-2.32,7.966-6.495,12.009-9.6C260.638,165.392,260.851,165.169,261.063,164.962Zm48.75-40.061c1.379,1.846-.466,1.46-.679,2.2C308.589,125.645,309.007,124.937,309.813,124.9Z" transform="translate(0 8.073)" fill="#fef7a7"/>
    <path id="Trazado_116" data-name="Trazado 116" d="M313.38,91.883l-.623-.674-.885.683a3.8,3.8,0,0,0,.55.869C313.918,93.941,312.512,91.719,313.38,91.883Z" transform="translate(41.592 5.955)" fill="#fef7a7"/>
    <path id="Trazado_117" data-name="Trazado 117" d="M309.941,98.291c1.748-1.353,3.372-2.607,4.855-3.753-.361-.226-1.477-1.22-1.719-1.334-.113.549-.012,1.235-.129,1.782-2.235-3.028-1.325-.364-2.616-.931-.046-.065-.081-.116-.118-.174l-.546.422c.062.064.122.126.184.192-.149.4.206,1.127-.423,1.22a3.543,3.543,0,0,1-.513-.831l-1.285.993A19.68,19.68,0,0,1,309.941,98.291Z" transform="translate(39.262 7.052)" fill="#fef7a7"/>
    <path id="Trazado_118" data-name="Trazado 118" d="M315.59,92.18a3.136,3.136,0,0,0-.282-.414,2.009,2.009,0,0,0-.045.237c-.084-.206-.147-.378-.2-.527-.107-.119-.225-.246-.361-.384-.381.144-.367.538.437,1.435C315.292,92.409,315.444,92.293,315.59,92.18Z" transform="translate(43.016 5.891)" fill="#fef7a7"/>
    <path id="Trazado_119" data-name="Trazado 119" d="M313.773,90.354l-.635.491c.115.239.248.488.384.741C313.812,91.7,314.045,91.157,313.773,90.354Z" transform="translate(42.288 5.485)" fill="#fef7a7"/>
    <path id="Trazado_120" data-name="Trazado 120" d="M319.4,86.814a.726.726,0,0,0,.642.085c.271.766-.321.872-1.262.4l-2.695,2.083c.181.167.387.369.638.635-1.494-.6.64,1.358,1.4,1.988l.542-.42c-.051-.022-.105-.056-.158-.082-.037.2-.274.209-.646-.028-.625-.888-1.235-1.768-.663-1.9a7.384,7.384,0,0,1,.947,1.06,5.56,5.56,0,0,1,1.995-1.082l.364-2.844-.823-.105Z" transform="translate(43.909 3.42)" fill="#fef7a7"/>
    <path id="Trazado_121" data-name="Trazado 121" d="M316.481,102.789l-.846.656a7.067,7.067,0,0,1,1.461.95C316.287,103.361,316.278,102.983,316.481,102.789Z" transform="translate(43.661 12.321)" fill="#fef7a7"/>
    <path id="Trazado_122" data-name="Trazado 122" d="M350.9,103.714a3.79,3.79,0,0,0-.381-.327l-.147.115c.1.324.408.948-.078.767-.119-.163-.223-.315-.318-.462l-33.79,26.127c-.214.166-.46.342-.673.508-3.289,2.673-7.11,5.669-10.9,8.558.321.97.242,1.54-.446,1.511a1.961,1.961,0,0,1-.451-.829c-1.581,1.2-3.149,2.377-4.66,3.495l-.663.513c-12.818,9.912-25.293,19.556-34.1,26.362-.3.236-.6.465-.9.693a5.344,5.344,0,0,1-1.712,1.325c-.276.212-.545.425-.812.631-1.866,1.441-3.49,2.7-4.826,3.732-.192.147-.377.291-.556.429-1.807-.048-2.156,2.666-3.964,2.433a14.373,14.373,0,0,1,3.671.812l1.31.167L283.9,159.1a.893.893,0,0,1-.189-.109c-.525-1.139-.211-1.173.381-1.093a4.2,4.2,0,0,1,.516.654l19.813-15.321q.332-.256.665-.515a52.639,52.639,0,0,0,4.107-3.589c-.465-.821-.1-.669.448-.793.073.074.132.139.192.2.139-.129.281-.257.423-.384-.121-.316.58-.862.86-1.886a4.044,4.044,0,0,1,.563.674c.039-.033.079-.064.118-.095-.174-.226-.358-.457-.555-.687a2.269,2.269,0,0,1,.848.457,21.691,21.691,0,0,1,3.574-2.263c-.291-.637-.666-1.331-.435-1.61.411.367.826.744,1.051.722a3.165,3.165,0,0,1,.157.468c.167-.125.333-.251.5-.378l1.451-1.12a10.559,10.559,0,0,0-1.908-.761c-1.114-2.542,1.458.029,2.574.226l0,.016,8.423-6.512a9.476,9.476,0,0,1-1.41-1.2c.886-.234.581-1.266,1.076-1.764.533.739.84,1.331,1.372,2.067-.5-.13-.7.008-.524.5L347.6,109.842c.933-1.517,1.852-3.242,2.862-4.9.414.454.829.911,1.243,1.367C350.492,104.833,351.3,104.662,350.9,103.714Z" transform="translate(8.422 12.65)" fill="#fef7a7"/>
    <path id="Trazado_123" data-name="Trazado 123" d="M285.567,126.586l-.186.141C285.489,126.713,285.586,126.7,285.567,126.586Z" transform="translate(27.029 25.403)" fill="#fef7a7"/>
    <path id="Trazado_124" data-name="Trazado 124" d="M316.822,102.454l-.584.453C316.461,102.769,316.794,102.73,316.822,102.454Z" transform="translate(43.992 12.137)" fill="#fef7a7"/>
    <path id="Trazado_125" data-name="Trazado 125" d="M321.068,133.513c-1.235,1.522-3.16,2.194-4.95,3.815l-.638.493c-.212.164-.428.329-.649.491a22.194,22.194,0,0,0-3.893,3.022c-.22.169-.439.339-.659.51l-1.987,1.534-.665.515a1.375,1.375,0,0,1-.952,1.085c.121.546.457,1.24,1.052.945.164,1.688-2.865.372-2.022,2.5-.885-1.292-1.045-1.291-1.478-1.9l-.575.448c.223.293.522.637.755.934a7.567,7.567,0,0,0-.931-.8q-1.267.981-2.531,1.959c.372.566.731,1.124,1.059,1.66-.384.408-.736-.482-1.384-1.41l-.324.251-.676.522c-2.115,1.4-4.271,3.882-7.149,5.528l-.634.49-.629.488c-.209.161-.418.324-.626.494a10.821,10.821,0,0,1-4.242,3.281c-.206.149-.4.3-.6.451L267.8,174.688l4.66.6,14.194-10.975.564-.437c1.661-2.458,5.395-2.9,6.978-5.395.2-.158.409-.316.614-.476l.618-.479c.208-.16.415-.322.621-.5,1.781-.9,2.915-2.6,4.431-3.419.214-.164.439-.33.652-.5L316.6,141.155l.629-.488c.29-.18.563-.355.834-.53-.962-1.093-.995-1.55-.57-1.694a3.233,3.233,0,0,1,.945,1.452,42.922,42.922,0,0,0,6.462-5.158l.172-.133a1.732,1.732,0,0,1-.073-.172c.062.034.115.06.174.095.093-.073.186-.146.279-.217l14.74-11.4.6-4.66-19.121,14.784C321.47,133.191,321.268,133.358,321.068,133.513Z" transform="translate(17.365 20.822)" fill="#fef7a7"/>
    <path id="Trazado_126" data-name="Trazado 126" d="M291.915,135.978a1.693,1.693,0,0,0-.435.38,3.729,3.729,0,0,0,1.181.735A4.874,4.874,0,0,0,291.915,135.978Z" transform="translate(30.382 30.566)" fill="#fef7a7"/>
    <path id="Trazado_127" data-name="Trazado 127" d="M320.235,140.915a22.839,22.839,0,0,0-2.179,1.526c-.225.177-.445.356-.66.535-.059.064-.122.124-.18.188.017.042.029.079.05.124-.036-.028-.067-.048-.1-.073q-.507.537-1.048,1.052v0h0c-.832.795-1.717,1.561-2.642,2.3.107.144.222.293.356.456-.342.053-.784.129-1.246.24-.865.663-1.75,1.314-2.644,1.951a1.306,1.306,0,0,0,.022.253c-.079-.046-.143-.079-.214-.118-.324.231-.651.462-.976.691l-.843.592a20.436,20.436,0,0,1-4.025,3.327c-.122,1.358-2.12,1.331-2.695,2.039-.036-.076-.065-.146-.1-.217-.321.215-.64.432-.955.657l-.643.5-.169.132c.468.353.893.609,1.354.947.023.58-1.062.17-1.818.7-.274-.316-.482-.567-.651-.784l-.313.242a4.838,4.838,0,0,0,1.223,1.12c-.037.18-.274-.087-.518-.366-.591.284.11,1.942-1.429,1.17a5.528,5.528,0,0,1-.67-.848l-12.667,9.794,4.66.6,14.419-11.149c.212-.184.431-.4.638-.572,1.917-3,.9-2.21,4.939-3.031a8.347,8.347,0,0,0,.835-.766c3.09-3.261,4.4-8.283,9.06-7.758q.33-.221.657-.443c.654-.448,1.3-.9,1.912-1.389.177-.13.346-.26.511-.389,1.567-1.21,2.929-2.264,4.012-3.1-.108-.139-.231-.288-.372-.451.339-1.3,1.39-.66,1.257-1.886-.076-.335.563.37,1.015.869l.1-.077-.056-.082c.039.014.071.028.107.04l.307-.237a4.561,4.561,0,0,0-.561-.488c.535-.065.783-.693,1.074-1.274l.4-3.143-8.015,6.2C320.593,140.641,320.41,140.782,320.235,140.915Zm-11.649,12.917c-1.319-1.72.115-1.381.634-1.337C310.67,154.5,308.646,152.875,308.586,153.832Z" transform="translate(26.193 29.651)" fill="#fef7a7"/>
    <path id="Trazado_128" data-name="Trazado 128" d="M299.953,158.792l0-.033-.036.028Z" transform="translate(35.021 43.09)" fill="#fef7a7"/>
    <path id="Trazado_129" data-name="Trazado 129" d="M309.953,151.168a.28.28,0,0,0,.188-.175Z" transform="translate(40.537 38.821)" fill="#fef7a7"/>
    <path id="Trazado_130" data-name="Trazado 130" d="M309.812,152.72c1.466,1.931-1.19.5-.378,1.641-.705-.674-.922-1.007-.9-1.178q-.607.481-1.226.942c-.208.15-.443.318-.6.428-.18.1-.344.2-.518.3.158.113.282.373.228.418.625.778.931.857,1.516,1.542.2-.152.389-.3.584-.445.987-.721,1.985-1.342,2.816-2.049C311.035,153.763,311.638,152.938,309.812,152.72Z" transform="translate(38.474 39.77)" fill="#fef7a7"/>
    <path id="Trazado_131" data-name="Trazado 131" d="M311.04,150.371s-.169.13-.471.377c-.079.074-.156.143-.234.215.237.211.484.429.718.643a6.909,6.909,0,0,0-.059-.868Z" transform="translate(40.747 38.479)" fill="#fef7a7"/>
    <path id="Trazado_132" data-name="Trazado 132" d="M300.872,158.091a10.458,10.458,0,0,1,.662.834,5.713,5.713,0,0,1-.474-.978Z" transform="translate(35.545 42.643)" fill="#fef7a7"/>
    <path id="Trazado_133" data-name="Trazado 133" d="M308.659,155.513c-1.161-1.672.493-.384-.076-1.378-1.116.654-2.108,1.3-3.041,1.97.206-.065.425-.132.666-.2,0,.082.014.16.019.24-.493.153-.9.271-1.207.342-1.113.829-2.176,1.711-3.326,2.723l-.016.012a1.8,1.8,0,0,0,.6.036,5.594,5.594,0,0,1-.544,2.427l1.881.242s.446-.347,1.165-.9c.124-.138.254-.274.387-.429a6.113,6.113,0,0,1,.012-.614c-.744-.214-1.917-.307-1.809-.77.133-.559,3.051-1.92,2.041-2.21,1.165-.256,1.565-.249,1.654-.132-.119-.172-.233-.341-.361-.521l.519-.435c.153.288.325.59.5.894a14.451,14.451,0,0,1,2.518-.626C309.7,155.931,308.97,155.263,308.659,155.513Z" transform="translate(35.989 40.548)" fill="#fef7a7"/>
    <path id="Trazado_134" data-name="Trazado 134" d="M310.6,151.711a1.366,1.366,0,0,1-.085-.251c-.5.451-1.009.885-1.516,1.309.428-.015.487.136.167.281a3.029,3.029,0,0,1-.572.051c-.253.208-.5.42-.759.621.329-.073.944.033.967-.321-.153-.015-.318-.028-.5-.036.174,0,.339,0,.5,0a.45.45,0,0,0-.019-.127c.039.048.063.085.1.13a6.1,6.1,0,0,1,2.628.541,4.549,4.549,0,0,0,.555-.962A6.74,6.74,0,0,1,310.6,151.711Z" transform="translate(39.374 39.077)" fill="#fef7a7"/>
    <path id="Trazado_135" data-name="Trazado 135" d="M310.215,151.71a2.477,2.477,0,0,0,.7.793,4.742,4.742,0,0,0,.167-.82C310.686,151.467,310.4,151.472,310.215,151.71Z" transform="translate(40.681 39.114)" fill="#fef7a7"/>
    <path id="Trazado_136" data-name="Trazado 136" d="M300.842,158.3c-.415.321-.707.547-.852.659.026.037.054.074.078.11l1.833.234A7.483,7.483,0,0,1,300.842,158.3Z" transform="translate(35.06 42.836)" fill="#fef7a7"/>
    <path id="Trazado_137" data-name="Trazado 137" d="M305.114,156.157c.06-.033.118-.068.178-.1-.031-.046-.067-.1-.1-.143C305.215,155.979,305.173,156.064,305.114,156.157Z" transform="translate(37.877 41.527)" fill="#fef7a7"/>
  </g>
</svg>
