<svg xmlns="http://www.w3.org/2000/svg" width="292.491" height="179.07" viewBox="0 0 292.491 179.07">
  <g id="Grupo_42" data-name="Grupo 42" transform="matrix(0.995, 0.105, -0.105, 0.995, -467.653, -1277.905)" opacity="0.204">
    <g id="Grupo_22" data-name="Grupo 22" transform="translate(607.594 1217.597)">
      <g id="Grupo_21" data-name="Grupo 21" transform="translate(0 0)">
        <path id="Trazado_80" data-name="Trazado 80" d="M116.667,382.089a3.423,3.423,0,0,0,1.082.164C117.388,382.2,117.029,382.147,116.667,382.089Z" transform="translate(-97.879 -347.069)" fill="#2c2c2c"/>
        <path id="Trazado_81" data-name="Trazado 81" d="M191.838,375.095c.531-.057,1.1-.118,1.655-.175.463-.049.973-.153,1.444-.227a29.092,29.092,0,0,1,3.046-.474l-.019-.011.279-.455c.293.129.556.252.786.367a37.945,37.945,0,0,1,5.411-.093c.386-.016.726-.033,1.005-.047,2.449-.49,5.523.192,8.443.4,1.1-1.189,1.386-3.148,2.049-4.838-3.005,1.989-5.605,2.057-9.7-.238-.493.022-.994.041-1.69.074l-.364.044c.219.734.337,1.416-.049,1.844-.781.855-4.624.2-4.227,1.8-2.871-1.888-.521-1.789-.268-2.63a4.119,4.119,0,0,0,.118-.57,67.591,67.591,0,0,1-7.679.23c-.279.03-.573.06-.91.093-.605.069-1.211.151-1.816.225-.5,1.449-2.112,2.367-.611,5.044C189.775,375.333,190.8,375.207,191.838,375.095Z" transform="translate(26.418 -369.306)" fill="#2c2c2c"/>
        <path id="Trazado_82" data-name="Trazado 82" d="M115.544,382.583a19.657,19.657,0,0,0-1.69,2.03c2.186.479,4.37.9,6.55,1.279C119.229,384.49,116.72,384.169,115.544,382.583Z" transform="translate(-102.772 -346.21)" fill="#2c2c2c"/>
        <path id="Trazado_83" data-name="Trazado 83" d="M123.772,409.4a177.031,177.031,0,0,0,38.622-.145q.777-.082,1.548-.173c12.229-2.846,22.878-3.7,35.2-6.443l.827-.2c.282-.066.564-.134.833-.2l1.6-.394c4.17-.712,9.282-3.8,12.755-3.323l.838-.23q2.4-.653,4.792-1.323c.285-.082.567-.159.86-.244,3.137-2.4,7.131-2.72,11.049-3.153.293-.085.575-.164.863-.249q3.587-1.036,7.18-2.082.8-.23,1.594-.463c3.644.518,7.424-2.463,11.134-3.17.564-.186,1.1-.342,1.636-.493,18.541-5.233,37.121-9.95,55.884-12.377.047-.129.181-.2.389-.17.047.036.068.069.11.1.238-.03.474-.055.71-.085a7.594,7.594,0,0,1-1.526-4.781c-26.461,3.414-52.559,11.383-78.688,18.93-.529.151-1.055.3-1.583.457-3.375-.408-5.824,2.468-7.89,2.282-.548.129-1.082.274-1.611.419q-3.168.888-6.339,1.751c-.529.145-1.055.288-1.583.43-2.833,1.414-6.827,1.734-9.52,2.479-.529.132-1.057.266-1.586.394q-2.383.592-4.767,1.151c-.531.126-1.063.252-1.6.4-2.345,2.364-5.115,1.244-7.939,1.729-.529.11-1.071.214-1.605.329s-1.071.238-1.611.367c-7.271-.118-14.939,4.512-21.169,3.142-.468.088-.929.181-1.392.279q-.81.086-1.619.167a171.674,171.674,0,0,1-42.293-.762c-.159.342-.616.962-.753,1.285C120.172,405.706,123.339,405.772,123.772,409.4Z" transform="translate(-97.086 -368.429)" fill="#2c2c2c"/>
        <path id="Trazado_84" data-name="Trazado 84" d="M224.638,375.575a5.484,5.484,0,0,0-.973-2.972c.622.044.808-.154.858-.43-4.186-.8-8.345-1.729-12.58-2.477-2.63.422-5.057.975-4.97,3.063q-3.608-.966-7.063-1.778a12.087,12.087,0,0,1-.493,2.235l.633.041C208.168,375.668,216.527,373.857,224.638,375.575Z" transform="translate(46.072 -368.628)" fill="#2c2c2c"/>
        <path id="Trazado_85" data-name="Trazado 85" d="M116.721,384.748c1.959.321,3.915.592,5.871.833-1.411-.827-2.49-2.109-4.268-2.205A6.276,6.276,0,0,0,116.721,384.748Z" transform="translate(-97.785 -344.832)" fill="#2c2c2c"/>
        <path id="Trazado_86" data-name="Trazado 86" d="M216.529,384.516c-.926-.786-1.485-.386-2.151-.052.693.211,1.383.414,2.077.633C216.471,384.922,216.5,384.736,216.529,384.516Z" transform="translate(72.095 -343.639)" fill="#2c2c2c"/>
        <path id="Trazado_87" data-name="Trazado 87" d="M112.373,391.8l-.5-.142c-.115.137-.216.26-.351.414.3-.03-.008.493,0,.734C111.7,393.147,111.867,392.571,112.373,391.8Z" transform="translate(-106.826 -330.422)" fill="#2c2c2c"/>
        <path id="Trazado_88" data-name="Trazado 88" d="M133.851,420.69c12.224,1.932,22.766-.249,35.59,1.14.507-.036,1.036-.058,1.594-.055,5.668-.43,11.317-1.1,16.95-1.961a13.971,13.971,0,0,0,1.646-.348c18.8-4.493,36-7.205,54.019-12.8.268-.082.54-.173.811-.263s.542-.184.814-.288c2.345-3.649,5.115-2.529,9.441-2.622l1.583-.46c18.473-5.359,36.948-10.654,55.569-14.117.531-.1,1.066-.2,1.605-.3,3.745-3.753,7.843-2.74,12.846-2,.512-.066,1.066-.118,1.581-.181a199.189,199.189,0,0,1,20.645-1.468c.3-.047.581-.06.89-.085,4.731-1.52,9.865,1.354,15.251.907a9.7,9.7,0,0,0,1.5-.206c4.909,3.022,10.021-.063,13.832,1.871.512.093,1.049.195,1.564.293,1.567.3,3.137.641,4.709,1a2.841,2.841,0,0,1,.583-.762,1.329,1.329,0,0,1,.592,1.047q1.812.427,3.627.9c-.17-1.444-1.164-2.392-.5-3.624.83-.8.156,1.825.72,1.635a1.76,1.76,0,0,0,.742-.841l.005-.019q.234-.789.46-1.583-6.2-1.722-12.344-2.874c-.5-.1-1.038-.156-1.529-.249a7.225,7.225,0,0,1-1.145.444,6.174,6.174,0,0,1,.983.463c.052.342-1.027-.175-.794.3a4.828,4.828,0,0,1-1.041-.573c-.205.03-.405.049-.605.06-.175.375.173.86-.008,1.233a9.283,9.283,0,0,0-1.405-.764c2.372,1.794-2.14.688-1.474,2.548a2.624,2.624,0,0,1-.225-3.52c-1.515-.5-3.019-1.246-4.685-1.682q-.744-.078-1.488-.148c-.493-.049-.989-.093-1.482-.137-.52-.044-1.057-.066-1.572-.107-5.337-.255-11.994.274-16.859-.433-.29.008-.581.014-.91.022-6.416.189-12.807.712-19.177,1.507-.427.057-.72.1-1.049.148-4.613,1.471-8.5,3.12-13.465,2.1-.534.1-1.068.2-1.6.3-18.541,3.5-36.94,8.794-55.336,14.133-.4.115-.685.2-.973.282-22.484,7.846-44.8,13.643-68.6,16.6-.529.077-1.123.162-1.655.236q-5.35.74-10.723,1.227c-.614.052-1.156.1-1.657.14-12.638.805-24.514,3.09-35.4-.49a4.2,4.2,0,0,1-.871-.233c-2.644-.348-5.3-.778-7.95-1.274a1.109,1.109,0,0,0,.074.362c-.666.449-.712-.052-.805-.5-.438-.085-.877-.167-1.315-.255-.734.488-.994-.025-1.572.14a4.058,4.058,0,0,1,.416-.384c-2.929-.616-5.868-1.32-8.813-2.131-.753,1.581,1.342-.485.293,1.422,3.8-1.931,2.507,2.627,6.775.548a7.451,7.451,0,0,1-7.1.619c-.411-.153-.92,1.4-1.419,1.586-.542-.2.241-2.016-.153-2.331-.477-.4-1.753.978-2.589,1.205-.737.205-.953-.411-1.477-.567l.052.663a147.448,147.448,0,0,0,22.979,5.4Zm253.87-34.149c1.044.614-.2.729-.055,1.148C387.1,387.183,386.609,386.336,387.721,386.542Zm-265.74,28.365c.605-.559.975-.616,1.183-.34C122.332,415.57,121.74,415.45,121.981,414.907Z" transform="translate(-109.809 -350.585)" fill="#2c2c2c"/>
        <path id="Trazado_89" data-name="Trazado 89" d="M204.154,428.094c.534-.112,1.071-.225,1.614-.359,3.811-.9,9.134-1.323,12.758-2.923.263-.066.548-.14.86-.216q3.6-.9,7.2-1.852.8-.209,1.6-.425c2.383.033,4.753-1.12,7.065-2.016.526-.194,1.005-.37,1.457-.515,4.183-3.485,9.616-2.578,13.64-3.693l1.564-.452c12.939-3.75,25.875-7.556,38.853-10.808a14.239,14.239,0,0,0,1.529-.455c20.251-4.093,41.488-9.073,61.772-8.684.723-.9,2.945-.247.984-.049-.033.011-.044.041-.066.06.636.016,1.263.055,1.9.082.3-.978,1.945-.808,2.655-1.025a1.946,1.946,0,0,1-1.14,1.1c1.918.112,3.833.258,5.731.485.49.033.981.068,1.468.107a149.907,149.907,0,0,1,27.305,4.69c.29-.268.584-.351.907.247.405.112.811.214,1.216.332.425-.729.745-.2,1.463-.077,0-.92-.189-1.4-.49-1.633,1.655-.156,2.446-.274,3.441-.321-.041-.493-.079-.989-.118-1.485-2.052-.66-4.1-1.252-6.142-1.811a1.688,1.688,0,0,1-.521.26c-.288.074-.436-.249-.614-.567-.367-.1-.734-.2-1.1-.3-.477.436-1,1.268-1.362,1.277-.638.022-.951-.945-1.663-1.14-2.526-.682-5.205,2.751-7.783,2.367-1.992-.3-3.909-4.022-6.172-2.934.825-3.419,2.466-1.282,4.005-1.444a13.792,13.792,0,0,0,2.246-.458,153,153,0,0,0-16.276-2.033c-.51-.036-1.016-.069-1.523-.1-5.761-1.677-13.533,1.622-19.563-.058-.329.016-.658.033-.984.052s-.627.033-.918.052a39.5,39.5,0,0,0-8.158.288c-.452.03-.89.071-1.318.118s-.841.093-1.244.142-.792.1-1.167.167c-3.131-1.329-4.145,2.77-6.958,1.334-.542.06-1.077.134-1.605.216s-1.052.164-1.581.249l-.846.14a6.6,6.6,0,0,0-1.236-.178,8.92,8.92,0,0,0-1.29.038c-9.263,2.457-18.476,4.531-27.374,6.561-.274.071-.551.142-.8.206-12.528,3.219-25.02,6.912-37.518,10.531l-1.581.457c-3.493,3-6.049,4.545-11.725,3.405-.268.071-.671.121-.934.195-6.331,1.764-12.67,3.455-19.021,5-.534.131-1.068.26-1.608.408-4.5.743-8.49,1.06-12.761,2.794-.266.052-.548.115-.868.2-29.73,5.942-59.8,7.537-90.8-2.425q.193,2.461.392,4.928C142.776,436.392,173.64,434.433,204.154,428.094ZM371.585,394.2c.077,1.408-.071,2.3-.693,2.112a6.143,6.143,0,0,1-.249-2.153Z" transform="translate(-108.518 -331.834)" fill="#2c2c2c"/>
        <path id="Trazado_90" data-name="Trazado 90" d="M373.955,403.606c-.542-.071-1.085-.14-1.644-.225-3.863.195-6.843-3.586-11.29-.956-.534-.025-1.093-.027-1.652-.025-25.3-.934-50.129,3.959-74.831,10.481-.266.071-.564.14-.858.214-4.208.252-7.989,3.233-12.692,3.507l-.827.236-1.6.452c-6.589,1.857-13.794,3.9-21.086,5.991-.521.148-1.044.3-1.57.46-4.3,2-6.959,2.214-10.923,3.148q-.777.226-1.545.449t-1.537.449c-.529.145-1.118.282-1.649.427q-2.761.744-5.52,1.46l-.934.241c-12.38,3.592-24.36,4.545-36.266,7.564-.529.077-1.088.129-1.619.2q-2.289.316-4.583.586-.764.09-1.529.173c-6.882-.526-14.443,5.435-21.393,1.356-.5,0-1.148-.137-1.663-.142a151.571,151.571,0,0,1-45.329-7.172q.2,2.466.392,4.931a151.2,151.2,0,0,0,43.291,7.139l.786.016c6.811-.482,14.8-1.118,21-.537.551-.019,1.1-.052,1.638-.093,16.278-1.219,31.069-7.654,45.764-9.161.521-.134,1.057-.263,1.625-.378q2.363-.62,4.731-1.257c.532-.142,1.066-.288,1.6-.433.51-.222,1.022-.441,1.534-.652s1.027-.416,1.542-.614c3.945-1.5,7.832-3.148,12.3-3.822.277-.071.556-.14.989-.252,12.355-3.027,24.851-4.624,36.318-9.558l1.6-.419c37.316-9.745,74.946-15.564,114.04-3q-.2-2.466-.392-4.931A147.673,147.673,0,0,0,373.955,403.606Z" transform="translate(-107.012 -313.318)" fill="#2c2c2c"/>
        <path id="Trazado_91" data-name="Trazado 91" d="M125.286,429.652c.326-1-.06-2.189-.09-3.383q-2.326-.284-4.663-.649c.734,1.866,1.789,3.833,1.252,4.912.181.085.34.151.507.225.877.126,1.751.252,2.625.364.551.068,1.1.137,1.649.2.236.011.468.025.7.038a1.459,1.459,0,0,0-.027-.855C126.883,430.057,125.831,430.128,125.286,429.652Z" transform="translate(-91.154 -271.346)" fill="#2c2c2c"/>
        <path id="Trazado_92" data-name="Trazado 92" d="M121.492,425.9c-.066.471-.575.97.534,1.57a3.665,3.665,0,0,1-1.3.17c.082.329,1.625,1.184.1.923-2.175-1.5-.055-1.838-.066-2.822-1.8-.414-3.613-.871-5.424-1.359a5.832,5.832,0,0,1-.981,2.718c1.7.951,5.567,2.477,5.77,1.636,1.1.674.43.556.153.833a3.877,3.877,0,0,0,1.608.392c-.068.353-.11.616-.151.844q2.572.579,5.137,1.06a.883.883,0,0,0,.082-.093c.238-.466-1.3-1.425-1.362-1.951-.033-.258,1.055.134,1.252-.077.175-.2-1.186-1.1-1.11-1.307.088-.266,1.044-.044,1.348-.26.342-.247.293-.649.1-1.112Q124.344,426.547,121.492,425.9Z" transform="translate(-101.891 -273.489)" fill="#2c2c2c"/>
        <path id="Trazado_93" data-name="Trazado 93" d="M112.283,423.671l.082,1.036c.836.159,1.671.318,2.49.468a2.6,2.6,0,0,1,0-.715C114,424.2,113.143,423.948,112.283,423.671Z" transform="translate(-105.505 -274.735)" fill="#2c2c2c"/>
        <path id="Trazado_94" data-name="Trazado 94" d="M226.327,414.891c-.545-.879-.512.54-1.723,1.29,1.868-2.756-1.866-1-.611-3.17a7.3,7.3,0,0,1-1.348-.268c-6.2.137-12.506.594-18.985,1.307-.277.03-.553.06-.833.093a63.14,63.14,0,0,1-15.8,4.586c.093.09.194.195.315.326a6.276,6.276,0,0,1,2.389,1.334q7.368-1.192,14.514-1.937c.241-.033.515-.071.871-.118a163.381,163.381,0,0,1,20.347-1.523,8.463,8.463,0,0,1,1.123-.8C226.077,415.778,226.42,415.263,226.327,414.891Z" transform="translate(24.508 -293.745)" fill="#2c2c2c"/>
        <path id="Trazado_95" data-name="Trazado 95" d="M296.093,416.492a3.7,3.7,0,0,1-1.205-1.534c-7.531,1.238-15.12,1.646-22.481,2.813q-.768.169-1.537.34-3.456.76-6.917,1.5l-1.386.3c-3.948-.7-9.06,2.381-13.224,3.271l-1.392.394q-2.494.711-4.989,1.43l-1.6.46q-3.883.9-7.775,1.9c-.537.167-1.088.356-1.605.51-2.12.323-5.9,3.3-9.3,2.386-.52.142-1.038.288-1.559.43-14.032,3.871-28.1,8.043-42.1,11.029-.269.049-.542.1-.836.159q-.805.152-1.611.3c-.293.055-.578.1-.877.159a46.857,46.857,0,0,1-11.139,1.764c-.3.041-.586.079-.882.118q-2.018.267-4.041.5c-.54.063-1.079.121-1.627.195a37.047,37.047,0,0,0-8.084.7c-.54.036-1.1.058-1.638.088s-1.085.063-1.625.088-1.085.052-1.638.093c-6.737-.825-13.61,1.663-20.278.2a10.011,10.011,0,0,1,1.466,1.389c.526.857-.584,1.2.063,2.126a4.451,4.451,0,0,0,.712.718c11.731.712,22.944,1.392,34.661-.852.54-.066,1.077-.131,1.616-.2s1.077-.14,1.616-.211,1.085-.159,1.622-.236c1.855-2.309,5.956-1.3,8.035-1.288.553-.074,1.09-.167,1.627-.266q2.416-.436,4.827-.91c.534-.107,1.071-.214,1.614-.34,13.558-1.482,26.193-5.781,38.562-9.794.493-.162.989-.321,1.482-.479,6.306-2.1,12.961-2.633,19.144-5.432.5-.129.995-.236,1.485-.337l.857-.247.814-.236q3-.892,6.011-1.77c.5-.145,1.047-.364,1.542-.521,2.545-2.337,5.208-2.55,9-2.468.51-.132,1.014-.268,1.518-.406q4.537-1.224,9.093-2.367l.858-.211q12.48-3.119,24.4-5.082c-.008-.115-.019-.233-.016-.351C296.937,416.358,296.29,416.972,296.093,416.492Z" transform="translate(-83.823 -289.891)" fill="#2c2c2c"/>
        <path id="Trazado_96" data-name="Trazado 96" d="M231.709,415.908a139.162,139.162,0,0,0-30.215-3.181,2.38,2.38,0,0,0,.438,1.449c.967,1.063,2.682.159,4.046.6,1.205.386,1.8,1.54,2.767,2.279q3.965.238,7.871.753a2.531,2.531,0,0,1,1.633-.3c1.477-1.137,1.211-2.942,2.8-3.315,1.186.1-1.23,1.359-.685,1.663.879.378,2.268-.463,3.482-.888.279,2.545,2.307,3.441,4.353,4.507.258.027.518.052.786.074.438-.433.3-1.773,1.422-1.879a2.065,2.065,0,0,0,1.208,2.033,42.391,42.391,0,0,0,7.443-.279,2.8,2.8,0,0,0,1.844-1.216q-3.822-1.085-7.621-1.951C232.761,416.135,232.2,416.014,231.709,415.908Z" transform="translate(49.683 -293.772)" fill="#2c2c2c"/>
      </g>
    </g>
  </g>
</svg>
